# xmcd
#
# Track frame offsets:
#  183
#  21833
#  43108
#  61983
#  85633
#  101933
#  125008
#  162133
#
# Disc length: 2638 seconds
#
# Revision: 3
# Processed by: cddbd v1.5.1PL2 Copyright (c) Steve Scherf et al.
# Submitted via: Collectorz.com_Music_Collector 6.10
#
DISCID=640a4c08
DTITLE=John Lee Hooker - Lonesome Mood
DYEAR=1983
DGENRE=Blues
TTITLE0=Bang Bang Bang
TTITLE1=The Hookers (If You Miss 'im... I Got 'im)
TTITLE2=Baby, I Love You
TTITLE3=Lonesome Mood
TTITLE4=If You Take Care Of Me, I'll Take Care Of You
TTITLE5=Baby, Be Strong
TTITLE6=I Wanna Be Your Puppy, Baby
TTITLE7=Have Mercy On My Soul
EXTD=
EXTT0=
EXTT1=
EXTT2=
EXTT3=
EXTT4=
EXTT5=
EXTT6=
EXTT7=
PLAYORDER=
